<?xml version="1.0" encoding="utf-8"?>
<!-- Generator: Adobe Illustrator 17.0.0, SVG Export Plug-In . SVG Version: 6.00 Build 0)  -->
<!DOCTYPE svg PUBLIC "-//W3C//DTD SVG 1.1//EN" "http://www.w3.org/Graphics/SVG/1.1/DTD/svg11.dtd">
<svg version="1.1" id="icons-effects" xmlns="http://www.w3.org/2000/svg" xmlns:xlink="http://www.w3.org/1999/xlink" x="0px"
	 y="0px" width="60px" height="60px" viewBox="-0.5 -0.5 60 60" enable-background="new -0.5 -0.5 60 60" xml:space="preserve">
<metadata><?xpacket begin="﻿" id="W5M0MpCehiHzreSzNTczkc9d"?>
<x:xmpmeta xmlns:x="adobe:ns:meta/" x:xmptk="Adobe XMP Core 5.5-c014 79.151739, 2013/04/03-12:12:15        ">
   <rdf:RDF xmlns:rdf="http://www.w3.org/1999/02/22-rdf-syntax-ns#">
      <rdf:Description rdf:about=""
            xmlns:xmp="http://ns.adobe.com/xap/1.0/"
            xmlns:xmpGImg="http://ns.adobe.com/xap/1.0/g/img/"
            xmlns:xmpTPg="http://ns.adobe.com/xap/1.0/t/pg/"
            xmlns:stDim="http://ns.adobe.com/xap/1.0/sType/Dimensions#"
            xmlns:xmpG="http://ns.adobe.com/xap/1.0/g/"
            xmlns:dc="http://purl.org/dc/elements/1.1/">
         <xmp:CreatorTool>Adobe Illustrator CC (Windows)</xmp:CreatorTool>
         <xmp:CreateDate>2017-01-13T12:32:24+02:00</xmp:CreateDate>
         <xmp:Thumbnails>
            <rdf:Alt>
               <rdf:li rdf:parseType="Resource">
                  <xmpGImg:width>240</xmpGImg:width>
                  <xmpGImg:height>256</xmpGImg:height>
                  <xmpGImg:format>JPEG</xmpGImg:format>
                  <xmpGImg:image>/9j/4AAQSkZJRgABAgEASABIAAD/7QAsUGhvdG9zaG9wIDMuMAA4QklNA+0AAAAAABAASAAAAAEA&#xA;AQBIAAAAAQAB/+4ADkFkb2JlAGTAAAAAAf/bAIQABgQEBAUEBgUFBgkGBQYJCwgGBggLDAoKCwoK&#xA;DBAMDAwMDAwQDA4PEA8ODBMTFBQTExwbGxscHx8fHx8fHx8fHwEHBwcNDA0YEBAYGhURFRofHx8f&#xA;Hx8fHx8fHx8fHx8fHx8fHx8fHx8fHx8fHx8fHx8fHx8fHx8fHx8fHx8fHx8f/8AAEQgBAADwAwER&#xA;AAIRAQMRAf/EAaIAAAAHAQEBAQEAAAAAAAAAAAQFAwIGAQAHCAkKCwEAAgIDAQEBAQEAAAAAAAAA&#xA;AQACAwQFBgcICQoLEAACAQMDAgQCBgcDBAIGAnMBAgMRBAAFIRIxQVEGE2EicYEUMpGhBxWxQiPB&#xA;UtHhMxZi8CRygvElQzRTkqKyY3PCNUQnk6OzNhdUZHTD0uIIJoMJChgZhJRFRqS0VtNVKBry4/PE&#xA;1OT0ZXWFlaW1xdXl9WZ2hpamtsbW5vY3R1dnd4eXp7fH1+f3OEhYaHiImKi4yNjo+Ck5SVlpeYmZ&#xA;qbnJ2en5KjpKWmp6ipqqusra6voRAAICAQIDBQUEBQYECAMDbQEAAhEDBCESMUEFURNhIgZxgZEy&#xA;obHwFMHR4SNCFVJicvEzJDRDghaSUyWiY7LCB3PSNeJEgxdUkwgJChgZJjZFGidkdFU38qOzwygp&#xA;0+PzhJSktMTU5PRldYWVpbXF1eX1RlZmdoaWprbG1ub2R1dnd4eXp7fH1+f3OEhYaHiImKi4yNjo&#xA;+DlJWWl5iZmpucnZ6fkqOkpaanqKmqq6ytrq+v/aAAwDAQACEQMRAD8A9U4q7FXYq7FXYq7FXYq7&#xA;FXYq7FXYq7FXYq7FXYq7FXYq7FXYq+bvzs1vUtT88XOlLK72enKiQW6k8OXpCWR+PdqsRXwGKs4/&#xA;5x71++vtH1LTLqdpl054mtg5qVjmDVUE/sgx/RXFXrOKpF5616bQPKOp6tBT6xbRfuC24EkjCNCQ&#xA;etGcbYq+btH/ADI856drEWqvql1cqZKzwzSM8UqgjkhRjx6Hag27Yq+rUdXRXU1VgCp8Qd8VbxV2&#xA;KuxV2KuxV2KuxVgX5q/mWPKNnFaWSLNrN4paEPukUYNPUcVFamoUexr0oVXmdgPz58wQjUrOa+ME&#xA;3xRuJorRGB6FEZohT3AxVE/4b/5yF/39ff8ASfB/1WxV3+G/+chf9/X3/SfB/wBVsVQeoXf55eVk&#xA;GpajNerbRkc3kkju4QCafvArSqoPTemKvWvyy/MGLzhpMjyxrBqdmVS8hSvE8q8ZErvxah27YqzL&#xA;FXYq7FXYq7FXYq7FXYq7FXYq7FXzl5etU8x/nRfep8VvJcX7E/8AFapIkf8AxriqN/5x7unt/Nup&#xA;afJ8JmtGJX/LhlUU29nbFXsPmDz75Q8vzehq2pR29wAGNuA0kgB6VSMOwr74q8q/NP8ANzy3r/lq&#xA;bRdIFxJJNLG0kzoI4uEbc+7c68gP2cVYNrmi/VvIHlnUwtPrs1/6h/1XRE/5Ntir1ryt+eXkxdIs&#xA;LTUnuLS5t4Iop5HhLxl0QKzKYi7caj+XFXoGheZtA1+B59Hvo7yOMgSBCQyk9OSMAy17VGKpnirs&#xA;VdirsVWTzwW8TTTyLFEm7SOwVQPcnbFUu/xV5X/6vFj/ANJMP/NWKvBfzXvLHU/zOtTDPHeWjLaR&#xA;co3WRCC/xLVSR+0cVfRqqqqFUAKBQAbAAYq3irsVQ2qQxTaZdwyoJIpIZFdGFQVKkEEYq8B/IHU7&#xA;Gw8xai17dxWsL2dA00ixqzCVKD4iATSuKvc/8VeV/wDq8WP/AEkw/wDNWKplFLFLGskTrJG4qrqQ&#xA;VI8QRiq7FXYq7FXYq7FXYq7FXYqgNX1zStKtZZ727ht/TRnVZZEjLcRWg5EdcVeG/wDOPdq9x5u1&#xA;K/k+Iw2jAt/lzSqa7eyNiqF8r3Nv5e/O65S5lS3tPrl7C0kjBFCSBzFVm4gb8cVY3+Ymn39v5x1O&#xA;7uwbi1u7qSe3ukPKKWF25IEkFV2QhaDpiqtoPmfyPY8fr3lJb6QChla8lH/JMqUOKvUfMHnbyNF5&#xA;A0S9n8ux3Wm3zyrY6afTQQmFmRyCBtv/ACjviryDXdb8q33L9GeXBpTH9pbyaffxo4AxVd5I85X3&#xA;lHVZtRtYhNLJbtCIZCRGeZVlZwNyBSuxHzxVlifnP+Z9vw1G4t0bT5COPqWrJAwPZZBxP/DYq9e8&#xA;gfmFpXnDTzJAPq+owAfW7Fmqy1/bQ7ckPj9+KsrxV2Kvm7XtS8xfmh54OlafLx06F3+qRsSIY4Iz&#xA;QzyAdWb+IXFWSL/zja3EcvMQDU3As6ivz9cYqiLL/nHU2t5BcjzDyMEiSBfqdK8GDUr6/tir2UVo&#xA;Kmp7kbCuKuxV2KrJ4vVgkirx9RStetKimKvFv+hbP+/i/wCnL/r/AIqtk/5xtkCEx+YQz/sq1oVB&#xA;PuRM36sVSTyPrPmHyB59Xy1qchNjPOlvcwci0VZqencRV6faBPtsd+ir6JxV2KuxV2KuxVTuZ47e&#xA;3luJK+nCjSPTc8VFT+rFXzzqf54efNVvnh0REs45Gpbwwwiebj0FS4cFvkoxVseW/wA8/MA5XEt6&#xA;kD7n1rlbePf/AIqDL/xHFUZY/wDOO/mSdueparbW/I1YxCSdvp5CIV+nFXpv5eflvY+TEvDDdvez&#xA;3vpiSR0VAoi5UCgFiK8998VSDzp+R9n5i1q71iDVHsri7Ks8TRCWPkqBdqMhFeNT1xVhV1+QvnrT&#xA;3MumX1tPtQelLJBIfvUL/wANirG/MHk38yLK2I1fTp5YEIJnpHckdT/eoZHp7VxVK9T1g3HlfRtK&#xA;Jo2mzXhZOh/fNGwr9xxV615q83aD5F8uWGkaRZ2p8zm0hWWVYo6wH0xWWUgfFIx3APzPuqxnyH5D&#xA;hvY5fOvnef0dFRjOPrJPK6cn7b9WKFug6ufbqq93t30TXtDQxLHeaPexAIjIRG8R2A4MAR922KvA&#xA;/PHk3Wfy41+317QZ3XTnlpazVq0TkEmCX+ZWUGleo64q9y8l+ZovMvlqy1hFEbzqRPENwkqEq6j2&#xA;qKj2xVO8VfMvlzV7r8sfPt5Ff2rzwor2syiiu0LMrpLHXY14A4q9PX/nIHyMVBMN8pP7JhjqPukO&#xA;Kt/9DAeRf9933/IlP+qmKu/6GA8i/wC+77/kSn/VTFXf9DAeRf8Afd9/yJT/AKqYq7/oYDyL/vu+&#xA;/wCRKf8AVTFXf9DAeRf9933/ACJT/qpirv8AoYDyL/vu+/5Ep/1UxVbL/wA5BeSFjZkgvpHA+FPS&#xA;jFT8zJirzrQ/0r+Y35oR6o8Hp2kM0U9wo3SG3gI4IWpuz8ae5JPTFX0jirsVdirsVdiq2SOOWNo5&#xA;FDxuCrqdwQRQg4q8W1n/AJx053Msmj6sscDEmK2uYySg/l9VSa/8DiqSN+Sn5maWxbTbyF99ja3M&#xA;kLf8OIv14qtki/PzQ1aR5NRZIwWZ2kS9UAbkmpm2xVm/5K+f9f8AMz6pa63cLcS2qwyW7iNI2oxd&#xA;XqECg7he2KsZ88/mV5/Pne/0Dy7cERxSiC3t4II5JWZUBfdldq8uXTFUv/w3+fOr/wB/LfxxN9oS&#xA;XawL9MYkXw/lxVUh/IPzzeyCXUL+1jJ6l5ZZpP8AiFP+GxVhHnDyhd+VdU/R15d21zcU5FbdmYqp&#xA;+yZAyrxLDfj/AGYqzHyL5Fhu4ZvO3naYx6LGTcAXBJe6cmvJq/EULdB1c+3VVO7W11v82dbWaZX0&#xA;3yRpr8YYV+EyFdqCmxkI6nog2G/VV7PY2NpYWcNlZxLBa26COGJNgqqKAYq8j/Pnzvph07/C1qwn&#xA;vWkSW9YUKwqnxKlf52NPkPnirL/ye0e70ryFYRXamOa4L3PpkUKrK1UB+a0P04qzTFXkn/ORcEB8&#xA;vaXcGNfXW7MYloOYQxsSvLrQkA0xVX8h/lX5C1XyfpWoX+l+teXMAeaX17heTVIrxSRVH0DFU+/5&#xA;Uv8Alp/1Z/8Ap5uv+quKu/5Uv+Wn/Vn/AOnm6/6q4q7/AJUv+Wn/AFZ/+nm6/wCquKu/5Uv+Wn/V&#xA;n/6ebr/qrirv+VL/AJaf9Wf/AKebr/qrirv+VL/lp/1Z/wDp5uv+quKsS/NT8tfJOheS7vUtK076&#xA;vexSQqkvrTvQPIqt8MkjL0Phiqcf84/hf8DSEKAxvZQSAATRE6kdcVel4q7FXYq7FXYq7FUJq+qW&#xA;ulaXd6ldEi3s4nml4irFUFaAeJ7Yq8b0/wD5yKuX1hFvtLii0l34s0bM00aE05En4Wp1IoMVe2SJ&#xA;HNCyNRo5FKnwKsKYq+fvyIkfT/zAvtOkO7200JHSrwyoa9+ytiqz8tv9y350XOoH41We+uxXcUfm&#xA;i9a9PUFMVfQ+KsH/ADB/NLQvLENxYLK0uuPA5t4YVDiKRkPpNMSyhRyoadadsVeMflfpmg+YvOY/&#xA;xNdmSWQmaKCUki7nJrxeQn6eP7XT5qvXfO35eaz5r8yWEVxeLb+UrONWe0iJEhlBIICheO60AYn4&#xA;RWgxVndhYWWn2UNlZQrb2luoSGFBRVUYq82/Nj82I9Bjk0XRZA+tOKTzihW2Uj8ZD2HbqcVeW+R5&#xA;/J+ma0NT84vNc3KuJIrNY/VAdjX1bksRXrXjufHwxV9NafqFlqNjBfWUqz2lygkhlWtGU/PcfI4q&#xA;iMVeT/8AORX/ACi+mf8AMb/zKfFWYflf/wCS/wBD/wCYYf8AEjiqSec/zTn8u+ddN0FbJJrW4ETX&#xA;c7MRIBM5QemBt8NK79em3XFXoeKsY/MbzhL5T8tPqkEC3Fw0qQQxuSEDPU1am9AFPTFUT5G8znzN&#xA;5Xs9ZaIQSzh1mhUkhXjcoaE9jxqMVT7FXnX5Zfmnd+cNX1KyuLKO2SBPXtDGWJ9PmFKyVO7fENxT&#xA;5YqiPzw/8l1f/wDGW3/5PLiqC/5x/wD+UFk/5jpv+IR4q9KxV2KuxV2KuxV2KsD/ADn1m1tPIepW&#xA;onjF5c+lCkPIcyGlUt8Na/YBxV8+XmjGDyrpmrU3vLq7iJ2+zCkHD8WfFX1J5M1m11TyzpdxHOk0&#xA;z2kDTqrBmWT0wHDDrUNUYq8IS8Hlr859QuSeEcNzeyUOw4zQyOg3H+WKfxxVNv8AnHSz5+YNWvSK&#xA;+jarDy/4zSBv+ZWKs4/NP807fyxbtpmmMs2vTL7MtsrDZ3Hdj+yv0nbqqwb8uPyluPMol8weaWm+&#xA;qXYZ4IyxE07SV/fsx3C1NV/mP+T1VYb578iav5N1cRSlpLORi1hfqCA4BrQ0+y69x9IxV6z+Uv5t&#xA;LrCxaFrsoXVlAW0u2NBcAdFY/wC/f+JfPqqrfmx+bEegxyaLosgfWnFJ5xQrbKR+Mh7Dt1OKpD+V&#xA;P5UtOyeaPNCFlY+vaWk+5cn4vXn5du4B69T7qvK5YLjWbjW9VFaQBr6Ynv61ykdPnWeuKvfPyEvv&#xA;rHkJYK1NldTQ08A3Gb/mbir0bFXk/wDzkV/yi+mf8xv/ADKfFWYflf8A+S/0P/mGH/Ejiryf85P/&#xA;ACaumf8AGOz/AOTzYq+gMVea/wDOQH/KCx/8x0P/ABCTFUb+R/8A5Lqw/wCMtx/yebFWe4q+f/8A&#xA;nHX/AJSjUv8AmBP/ACeTFXof54f+S6v/APjLb/8AJ5cVQX/OP/8Aygsn/MdN/wAQjxV6VirsVdir&#xA;sVdir5l/NLzl5mvPN+pWEl5Na2NnO9tDaxuyR8ENA7Kh+Iv9qp8cVS7QvKPljUGX695vs7Nm3ZfR&#xA;uWIJ8WmS3X8cVep6v5F8ly/lxpGnSeZIYNPtZpJbXWCY2SaSRn5qF5gGhNKK1Rx+eKvI9a8v6Jpb&#xA;mTTPNFrfyR7oscV1FIT/AJJEbx1/56YqlVlY65rd8yWcNxqN8ylnEYeWQooCkmlTQCgxVnui6/e/&#xA;lt5ev7RkVPNWrtGwtm4t9UgjVuEkwFf3jeoSqH5nwKqaflb+VtzrlyPNHmgPLayv61vbzVL3Lk19&#xA;WWu/CvQftf6vVV7wAAAAKAbADpTFUv1/QNL17S5tM1OETWsw3HRlYdHQ/ssvY4q+VfOHlqTyz5mu&#xA;NJiulu2gZTDNCfjHLdQwH2ZB3GKo/UtG1jyVqdrd65aw3Grz1uYra4b10X4iPUm4NxdiwJA5EdzX&#xA;piqeReavzq81RMLE3UlrIKE20KQRUaop6vFf+JYqyDyV+Uvma18u+ZrfVLZLe81K0WCwjMkb1dWM&#xA;nxMhcKOapirHLLy7+c/k6OT9HW91bwFvVkW29K5jJApyKL6vYd1xVNfLH56eaYNYt7PzDFHcWryL&#xA;FcP6Xozx8iByotF+HqRxxVkv/ORZH+GNMHf670/55PirMPyv/wDJf6H/AMww/wCJHFXk/wCcn/k1&#xA;dM/4x2f/ACebFX0BirzX/nID/lBY/wDmOh/4hJiqN/I//wAl1Yf8Zbj/AJPNirPcVfP/APzjr/yl&#xA;Gpf8wJ/5PJir0P8APD/yXV//AMZbf/k8uKoL/nH/AP5QWT/mOm/4hHir0rFXYq7FXYq7FWLeZvyz&#xA;8n+ZLr65qVmfrpUK1zC7RuwHTlQ8W8KkVxV5j+ZP5N6B5e8sXOt6Zc3TPbNEHhnaN04ySLHtxRG6&#xA;sO+KsL1XWTN+WugaaGJ+r319yXw4iJ1/6iDir0vyp+RPla80PTtR1G4vJLi7t4biWBHjSNTKgcr9&#xA;gttWn2sVWea9a8ofljaz6b5VtU/xHeIBLO7GZoEO4Z2ctueqoNu57VVSr8rfytudcuR5o80B5bWV&#xA;/Wt7eape5cmvqy134V6D9r/V6qveAAAABQDYAdKYq7FXl/5sfmxHoMcmi6LIH1pxSecUK2ykfjIe&#xA;w7dTiqR/lL+VM080XmjzKjMzMJ7G0lqWdieQnmrv13UHr1Puqzb8x/yxsvOS28wuTZahagpHPw9R&#xA;WjJrwdar0PQg9z1xV5le/kB5vsla4sdQtJvSBbZpYpNhX4fgYf8ADYqgfInnTWLbyv5uSbULh5Es&#xA;Y3tGeZyYmaT0OUZJ+A1mXoR2xVA+VPy/84+erWW/iv0a3hl9GSS9mmYlwqseICyV2fFWeeWP+cfU&#xA;stTt73WdSW5it3WT6nBGQrspqA0jGvGo3HHfFVX/AJyN/wCOLo//ADEyf8m8VZt+V/8A5L/Q/wDm&#xA;GH/Ejiryf85P/Jq6Z/xjs/8Ak82KvoDFXmv/ADkB/wAoLH/zHQ/8QkxVG/kf/wCS6sP+Mtx/yebF&#xA;We4q+f8A/nHX/lKNS/5gT/yeTFXof54f+S6v/wDjLb/8nlxVBf8AOP8A/wAoLJ/zHTf8QjxV6Vir&#xA;sVdirsVdirsVSPzxo0+teUtV0y3Aa4uYGECk0BkX40FT0qyjFXy7p/lTzNqGqR6LDYTi79QqYnjZ&#xA;RGTQMzkj4QANycVe6/mT+Zdp5P02PRNJZZtbESxp+0tsgUBXcb/ER9lT8zt1VYh+Vv5W3OuXI80e&#xA;aA8trK/rW9vNUvcuTX1Za78K9B+1/q9VXvAAAAAoBsAOlMVdiry/82PzYj0GOTRdFkD604pPOKFb&#xA;ZSPxkPYdupxVIvyn/KeS5kj8zeZoy/M+tZWU1SzsTy9abl1r1VT16n3Ve24q7FXYq+PdUS50bVdZ&#xA;0sAxhnks5kNR8Edwsg/4aFTir6C/IzT3tPy/t5HUobyea4oRQkVEYP0iPFXoGKvJ/wDnIsD/AAzp&#xA;hpuL2gPzifFWYflf/wCS/wBD/wCYYf8AEjiryr84IZZPzY0lEQs8kdmI1A3Ymdht9OKvfcVebfn8&#xA;jN5EUqCQt7CWIHQcXFT9JxVH/knFJH+XOmlxT1Hnda/ymdxX8MVZ1irwL/nHeGVfM+qlkZRHZ8Hq&#xA;COLGVfhPgfhOKvQPzw/8l1f/APGW3/5PLiqC/wCcf/8AlBZP+Y6b/iEeKvSsVdirsVdirsVdirsV&#xA;ed/mn+adv5Yt20zTGWbXpl9mW2Vhs7jux/ZX6Tt1VYX+Vv5W3OuXI80eaA8trK/rW9vNUvcuTX1Z&#xA;a78K9B+1/q9VXvAAAAAoBsAOlMVdiry/82PzYj0GOTRdFkD604pPOKFbZSPxkPYdupxVIvyn/KeS&#xA;5kj8zeZoy/M+tZWU1SzsTy9abl1r1VT16n3Ve24q7FXYq7FUi1jyL5Q1i9F9qWlQXN2KVmYEM3Hp&#xA;z4kc6f5VcVTuGGKGJIYUWOKNQscaAKqqBQAAbADFV2KvLP8AnIe3lk8o2MyCqQ3y+p7BopAD9+2K&#xA;p/8Ak9qMF9+Xul+mwL2oe2mUfsvG5oD80Kt9OKsulsrOWeK4lgjkuIK+hMyKzpy2PBiKrX2xVWxV&#xA;TuLa3uYXguYkngkFHikUOjDrurVBxVdFFFFGsUSLHEgCoigKqqNgAB0GKrsVUbeys7ZpXt4I4Xnb&#xA;nM0aKpd/5mIA5H3OKvP/AM+dQt7fyI9s5Hq3txFHCtd/gPqMaeACfjiq/wDIi0lg8gRSOKC6uZpo&#xA;9qfCCI/1xnFXoeKuxV2KuxV2KuxV55+an5pQ+V7c6bppWXXp0qK7rbo3SRx3Y/sr9J26qsK/K38r&#xA;bnXLkeaPNAeW1lf1re3mqXuXJr6std+Feg/a/wBXqq94AAAAFANgB0pirsVeX/mx+bEegxyaLosg&#xA;fWnFJ5xQrbKR+Mh7Dt1OKpF+U/5TyXMkfmbzNGX5n1rKymqWdieXrTcuteqqevU+6r23FXYq7FXY&#xA;q7FXYq7FXYqlfmfy/aeYNBvNIuvhiuo+IkAqUcHkjgf5LAHFXz/5d8xeZPys8yXOm6lbGWzlI+sW&#xA;9aLIo+zPA3Tp/Q0I2Vewab+cX5fX0Ak/SYtXpVoblHjdfatCh/2LHFUZ/wArQ/L/AP6vlt97f0xV&#xA;3/K0Py//AOr5bfe39MVd/wArQ/L/AP6vlt97f0xV3/K0Py//AOr5bfe39MVS/V/zn8gafbtJHf8A&#xA;16alUt7VGZm/2TBUH0tiryK6ufNH5s+bo44ovq9jBsq7tFawE/E7NtydvxO3QbKvorSdLtNK0y10&#xA;2zXhbWkSwxA7niopUnuT1OKovFXYq7FXYq7FXYq+b9CsrPzB+dVzDrhEkbX10xhk+y7QF/TiIP7I&#xA;4AUPUCmKvpAAAAAUA2AHSmKuxV5f+bH5sR6DHJouiyB9acUnnFCtspH4yHsO3U4qkX5T/lPJcyR+&#xA;ZvM0ZfmfWsrKapZ2J5etNy616qp69T7qvbcVdirsVdirsVdirsVdirsVdiqWa/5Z0LzBafVNXs0u&#xA;4QapyqHQ+KOpDL9BxVgF1/zjz5QkmZ4L29gjPSING4HyLJWnzxVR/wChdfK//Vzvf+SX/NGKu/6F&#xA;18r/APVzvf8Akl/zRirv+hdfK/8A1c73/kl/zRirv+hdfK//AFc73/kl/wA0YqiLL/nHvybDMJLi&#xA;6vbpQQfSZ40U+zcEDfcRir0LRtC0jRbJbLSrSO0tl34RilT4sxqzH3Y1xVHYq7FXYq7FXYq7FXYq&#xA;8T/OH8tr+C+l84aBz5BhNfwxVEkbpv8AWI+O/ardwfi8aKp5+Wn5xafq9mun+YbmKz1aEUFzKyxx&#xA;XCj9rkaKr+K9+o8Aqpfmd+cdlplq2meW7mO61OYESXkRDx26n+VhVWk8PDv4Yqk/5T/lPJcyR+Zv&#xA;M0ZfmfWsrKapZ2J5etNy616qp69T7qvbcVdirsVdirsVdirsVdirsVdirsVdirsVdirsVdirsVdi&#xA;rsVdirsVdirsVdirsVdirsVeWea/yD0XVb6S90i8OlPKxaW29MSwcj14AMhT5bjwpiq/yh+Q+iaP&#xA;fR3+q3R1WaEhoYDGI4Aw6FlLOXp23A9sVeoYq7FXYq7FXYq7FXYq7FXYq7FXYq7FXYq7FXYq7FXY&#xA;q7FXYq7FXYq7FXYq7FXYq7FXYq7FXYq7FXYq7FXYq7FXYq7FXYq7FXYq7FXYq7FXYq7FXYq7FXYq&#xA;7FXYq7FXYq7FXYq7FXYq7FXYq7FXYq7FXYq7FXYq7FXYq7FXYq7FXYq7FXYq7FXYq7FXYq7FXYq7&#xA;FXYq7FXYq7FXYq7FXYq7FXYq7FXYq7FWLeafPUGi3Ys4rf6zc8Q0lW4KoboOjEnISnTp+0O1xglw&#xA;AcUkz8t+Y7XXbE3EKGKSNuE0LGpU0qKHaoOGMrcvQ62OohxDYjmE2yTmqdxcQ28Ek87iOGJS8jno&#xA;FAqTixnMRBkdgGM2X5j6DdXyWvCaFZG4RzyBQhJNBWhJFcgJh1GLtzDOfDuL6sqybuXYq7FXYq7F&#xA;XYq7FXYqpXV3bWlu9xcyrDCgq8jmgGLDJkjCPFI0Axeb8zvLkchVEuJlH7aIoB/4NkP4ZDxA6iXb&#xA;2AHbiPw/WVP/AJWl5f8A+We7/wCAj/6qY+IGP+iDB3T+Q/W7/laXl/8A5Z7v/gI/+qmPiBf9EGDu&#xA;n8h+tWtvzL8tzShHE9uD/uyVBx/4RnP4Y8YZ4+3cEjR4o+8fqJZRDPDPEk0LrJFIOSOpBUg9wRk3&#xA;bxmJCwbBX4snYq7FXYq7FXYq7FXYq7FXYq7FXkWuQtq3na9gXcs8iCn/ABRER2/4x5Sdy8Rq4+Nq&#xA;5Ad5+wfsTj8qLilzqFv/ADpHIB/qFgf+J4cbn+z0/VOPkD+Pm9Fy16hj3n+49HytdgGjSlI1+lwT&#xA;/wAKDkZ8nWdsT4dNLzofa8mls5IrK2uzULcNIEP/ABj4/wDNWU08XLGRAS77+ynuljcC5sre4G4m&#xA;jSQf7JQf45kB9DxT4oCXeAVbFsdirsVdirsVdirsVeafmVfXNzrNtpaNSGNVYJ0BlkJFT8hTKpne&#xA;nk+3c0pZRjHIfeWRWH5c+XILZEuoWupwP3kzO6VPeioygDJCAdph7EwRjUhxHvs/oRP+APKX/LB/&#xA;yVm/5rw8Abf5H03837Zfrd/gDyl/ywf8lZv+a8eAL/I+m/m/bL9aB1j8utAksZTYxta3KKWjYO7q&#xA;SBWjBy23ywGAcfVdiYTA8A4ZDzP6Ur/KzUrhpLvTnYtAqiaIHoprxan+tUZHGXD9n88rljPLm9Cy&#xA;16d2KuxV2KuxV2KuxV2KuxV2KuxV5b5EH17znNdnegnuCT/xYePf/jJlMObx/ZH7zVmX9Y/P+13k&#xA;Otj5ymszsSs9uQfFG5d/+MeGHNeyP3eqMP6w+X9it5l8/a0NVuLTT5BawQSNDy4qzMUPEsS4NN8Z&#xA;TNtmv7Yy+IYwPCAa/FoBNG856+o9Wczw1qBJcIUBHfgGNP8AgcFEuMNNq9TzNjzkPuv9Cf6l5D1O&#xA;by3ptjC0JvLJpWlqxCt6rcvhPH2HWmSMNnZZ+yMksEICuKF/ax6VvOmgqEa7eKOMcVT145FAG1Ah&#xA;ZqU+WR3Dq5HV6bbioD+kD9lsi8meeby9uZbXV5I+KxmVbohY6cSKh6UXvkoz73a9l9rSySMcpHK7&#xA;5fPoyOPzj5YeYRLqMXMmgJqq/wDBEBfxyXEHaDtPTk1xhOFZWUMpBUioI3BByTnA27FXYqxLzT5+&#xA;t9JuGsrSIXN4n96WNI0J7Gm5PtkJTp0vaHbEcMuCI4pfYGN/8rS8wf8ALPaf8BJ/1UyHiF1X+iDP&#xA;3Q+R/Wkl5rVzrGuwX10saSl4lIjBC0Vh/MW/Xguy6/LqpZ8wnKr25PbAQRUbg9Dl737sVdiqnc/7&#xA;zS/6jfqxYZPpPueKaB5hvdDuZLi0SN3lT02EoYilQduLL4ZjiVPBaPWz08jKIG4rdPh+aWv13t7S&#xA;nf4JP+qmS8Qux/0QZ+6P2/rZT5V8822tS/VJ4xbX1CUUGqSAbniTuCPDJxnbuOz+1o5zwkcM/vZR&#xA;k3buxV2KuxV2KuxVKL/zb5dsJGiub1BKho0aBpGBHY8A1D88iZAOFm7RwYzUpC/n9yS3X5oaHHUW&#xA;8E87diQqL95JP4YPEDr8nb+EfSJH7ElvvzRv5o3jtbKOEOCtXZpDuKbU4ZE5HAy9vzkCIxA+39SJ&#xA;/K3TriOe+u5YnjX00jjZlIDciSeNRv8AZGHGG32fwyEpSIrYJPrzahofnK51GCE/BM0sburem3qr&#xA;U7ilftnvkTsXB1Znp9VKYHW/Lf8AtSjU9RtNSvZLuSA20sx5TekeSFj1YI1Dv/rZEm3Cz545ZmRH&#xA;CTzr9X7UJIlqqc4ZmZgR8DJwPzBDOMWmQjVg/YnurarLL5R0W29RiyvcCXc78GHGv+xfJE7B2Go1&#xA;BOmxxvrL8fajLf8AL1xpialfajFaWzRLMx4FyqsoIB3Xfem2PA3w7GPh+JOYjGr5MfsdJn1PU/qW&#xA;mK0oY/C7jjRB+29K8RkQLdbi05y5ODHv+OZZpc/lXEtiTbXjPfKK0cARsfAU3X51OWeG77J7Pjg9&#xA;MvX9iA8qebbrQrltI1hXW1RuPxCrwN/FP9sYIyrYuN2d2lLTy8LL9P8Auf2PTUdHRXRgyMAVYGoI&#xA;PQg5a9aCCLDeKXk/ka3ttS80vJqQEkvGSdUfo03IdQetKk0ymG5eL7JhHLqbybnc/F6wAAKDplz2&#xA;jsVdirsVdirsVdiriAwKsKg7EHoRipDybVY7a28/RppIChbmEBE2USErzUU7VO4yk/Vs8XqIxhrQ&#xA;MX84fPq9Zy57R2KuxV2KuxVTuFka3lWI8ZGRgjeDEbHFjMExNc3hM9vNaXjQ30LrIhPqRk8WJ+ZB&#xA;zHfOpwMJVMG0703WvKMHH6xoTSMOsjTtJX/YEKuSBHc5+DVaaP1Yr/zr+xlOneevJcFBDZtZGm5W&#xA;BB+MZJyYmHcYO1tJHlHg/wA0foZPpOvaTqyyNp84nEVPUHFlK8q0qGC/ynJAgu30+sxZr4DdITVP&#xA;OHl7TriS1u7mlxHQPCqOxFQD1A49D44DIBp1HaeDFIxkfUOlFjGpecfI8/LlpJuXP7ZijQn/AGde&#xA;WRMg6jP2no5f5Pi+AH282K6lqPlyev1TSXtT/MLhm/4VlbIEh0+fNgl9OMx/zv2JWZXaJIifgQsV&#xA;9uVK/qyLh8RIpkupanqnmvUINM09GWyiosER2AVRT1ZTv2+7oN+sySXbZ9Rk1kxjgPSOQ/SU7ubu&#xA;18q2q6Loi/WteueImmChiGPTbff+Ve3U+8uWw5ufkyR0cfCw+rNLmfx9g+bNdKW/XTbddQYPehB6&#xA;7ClOX0AD7smHf6cTGMcf11uxT8zdLsW0xNSICXkbrGH6F1avwnxp1GQmNnTdvaeBxjJ/EDXvTH8v&#xA;biabyvb+oS3pM8aE/wAobYfRWmShycrsaZlpxfS2SZJ2ry/z75bXSbpdWs5THHcymsYqGSQgsSpH&#xA;Y0+jKpxrd5HtjQjDLxYGhI/Ioey078xLy1jurae7e3lHKN/rYWo+TSA4AJNWLDrskRKJmYn+n+1X&#xA;/QX5m/79u/8ApMX/AKq41Js/Kdod8/8AT/8AHnfoL8zf9+3f/SYv/VXGpL+U7Q75/wCn/wCPO/QX&#xA;5m/79u/+kxf+quNSX8p2h3z/ANP/AMed+gvzN/37d/8ASYv/AFVxqS/lO0O+f+n/AOPO/QX5m/79&#xA;u/8ApMX/AKq41JfynaHfP/T/APHnfoL8zf8Aft3/ANJi/wDVXGpL+U7Q75/6f/jyE1Oy8/2Fm9zf&#xA;3F1HaiiuxuuY+I0A4rIx/DEiQac+LW44GUzIR/rftTr8tfL1tKp1uZucsbtHBHTZSAKufE0bbDAd&#xA;XP7C0UT++PMGh+t6Flr0zsVdirsVdirsVWyQwyrxlRZF8GAI/HFjKIPMWk0mk+Tru4a2NvZPcj7c&#xA;UfprKPmEo2RoODLTaWcuGocXdtf2IO9/Lvy1LE/oW7QylTwKSPTl22csMBgGjL2LpyDQo+8/pY3+&#xA;VU5XU7237SQiSn/GNwP+N8jjdV7PT/eSj3x+4/tQP1KHXPP9xbTljBJcTBypoeMQam+/8gwVcnH8&#xA;IajWmJ5GR+z+xnNv5C8qw0P1P1G/mkd2/CvH8Ms4A9DDsfTR/hv3ko4aR5f0+CScWVvDHCpeSQRL&#xA;UKoJJJpXYYaAcn8tgxgnhiAPJ5hfu/mfXfQ0ixjt42J4hEVDx7yyso/z+eUnc7PIZidXmrFEAe77&#xA;SyO9mg8p2kei6PGbjXL0AyT8an4qgED7+K9up95nbYO1yyGjiMWIcWaXX8fYE58peUl0pTe3p9fV&#xA;p6mSQnlw5blVJ6k/tNkoxpzuzezfB9c98h+z8dSnep6nZ6ZZyXl5J6cMf3seyqO5OEmnYZ88MUDK&#xA;RoB5ddXWtedNaWGFeECf3cf+64Y+7ue5P9gyokyLyGTJl1+Why+wB6hpOmW+madBYwV9OFacj1Yk&#xA;1Zj8ya5aBT12nwRxQEI8gi8Lewr81P8Ajj2n/MR/xo2V5OToPaD+6j/W/QU88m/8oxp3/GL+JyUe&#xA;TsOzP8Xh7k0ku7WKaOGSZEml/uomYBmp/KpNTknMlkiCASLKrizWTTwwRNLNIsUSbvI5CqB7k7Ys&#xA;ZTERZNBuOSOVFkjYPGwqrqQQQe4IxTGQIscl2KVKC8tLhpEgnjmaE8ZVjZWKN4MAdjt3xYQyxlYi&#xA;Qa5sf/MT/lFbn/Xi/wCJjIz5Os7a/wAWPvH3of8ALL/lHG/5iJP+Irgx8mvsH+4/zj+hluTd07FX&#xA;Yq7FXYq7FUp813sll5dv7iNikixcUcdQXIQEf8FgkdnC7RynHglIc6+/Z4zEbmD0ruJijBz6Ug2I&#xA;ePi23y5DMd4SJlGpDv8Aue72s4ntYZx0lRXH+yAOZL6LjnxRB7w8x8qsun+fJoGPFA9zESfBOTf8&#xA;aZTHYvI9nnwtaR5yH3/qX/luhufM9xdP1WGSSv8AlO6j9THDDmy7DHHqDI9xPzL0u7u7aztpLm5k&#xA;EUEQ5O7dAMtJesyZIwiZSNAPLtZ8ya75mvntNLWZbQK3G2iJBdAPiaWh3r4dO3XKTInk8hqtdm1U&#xA;zHHfD3DqPNKvLfmG80HUDNGvKJ6JcwHbkoP4MO2CMqcPQ62WnnY5dQ9b02bR9TWLV7RI5JWXgJ+I&#xA;9VR3QnqKV6ZcKO72mCWLNWWIBPf19ytqep2emWcl5eSenDH97HsqjuTiTTZnzwxQMpGgHl11da15&#xA;01pYYV4QJ/dx/wC64Y+7ue5P9gyokyLyGTJl1+Why+wBKjqd/pt1NBpt1LDDFIQDGxXnwPEM9Otf&#xA;fI3Th+PPFIjHIgA9OvveseUtXm1bQre7np9Y+JJiNgWQ0r9I3y6JsPZ9nak5sIkefVOMk5zCvzU/&#xA;449p/wAxH/GjZXk5Og9oP7qP9b9BTzyb/wAoxp3/ABi/iclHk7Dsz/F4e5hfnx3XzpZMCQUWAqfD&#xA;94TtkJ83Q9rkjVx/zfvem5a9axP8zWYeXFAJANxGD7jixyE+Tpe3j+4/zh+lE/l67N5VteRrxaUD&#xA;5eocMOTb2Kb00fj97I8k7V5l+VjMdZvKkmtvU+55rv8AjlWN5L2fP72X9X9IZR+Yn/KK3P8Arxf8&#xA;TGTnydv21/ix94+9D/ll/wAo43/MRJ/xFcGPk19g/wBx/nH9DLcm7p2KuxV2KuxVi+vef9L0m7ez&#xA;WJ7q4j2kCEKikitORrv9GQM6dRrO2MeGRhRlIMP8w+fbvWrF7BbRIIZWUtRi7niwIFaKOo8MgZ26&#xA;PW9sSzw4OGgfio6ho9xH5O0y59Jg5uJ2ccTUB6KCR/zxxI2a82mkNLCVfxS/H2JhpH5l3VlZ29pP&#xA;ZJPHbosSurlG4oAorUMK0GETcnTduyxwETGwBXOmP6hrKz69capbIYhMWZUJFQXTi249ycje9utz&#xA;6nizHJEVf6mT/lm9vZ2+q6jdOIoIljUyN0H2iw+fTJQdv2EYwjkySNAV+lL9Y1jVvOGrJYWCMtor&#xA;ViiOwAGxllI/zHQb9QSZFxdTqcutyiEB6eg/SXoPlzy5ZaHZCGEc53obi4I+J2/go7DLYxp6bQ6G&#xA;GnhQ59T3pD528ki+D6lpqUvRvPAOko8R/l/r+eRlG3W9q9leJeTGPX1Hf+372E+XPMd9oN96kdWg&#xA;Y0ubY7BgP1MOxyuMqdBoddPTzscuo/HVX1fWr3zNqi+tKlrZof3ayNSOJO7Mf2mP3ntiTbZqdVPV&#xA;5Nzwx8+Q/ayvT/M3kzy9pxtbCZrmalZJEjasklOrFuIp8jtkxIB3WHX6TTQ4YHiPu5lhujWJutO1&#xA;qcjk0NsrA9aEzI5P/AocgBzdDpsXHjyHuj/vh+pP/IvnDStJ06Syv2dC0xkR1XkvFlUUNN+q+GSh&#xA;IB2fZPaWPDjMJ3ztnOneZND1KQR2d5HLKRUR7q5+SsFOWCQL0GDXYcpqEgSxz81P+OPaf8xH/GjZ&#xA;DJydX7Qf3Uf636Cnnk3/AJRjTv8AjF/E5KPJ2HZn+Lw9zCvPv/KZWn+pB/ycOQnzdB2x/jUfdH73&#xA;p2WvXMS/M7/lHE/5iU/4i+QnydJ29/cD+sP0oj8u/wDlFbb/AF5f+JnDDk29i/4sPefvZLknbPMf&#xA;yr/47N3/AMwx/wCJrlWN5H2f/vZf1f0hlP5if8orc/68X/Exk58ncdtf4sfePvQ/5Zf8o43/ADES&#xA;f8RXBj5NfYP9x/nH9DLcm7p2KuxV2KuxV5j5q8j642sXN7Yw/Wre4czCjLyUt8TKVY779KZVKBt5&#xA;LtDsnN4spwHFGRtAx6t5x0JKtbG1hB48mtY0WvhzVFr9+CyHGjqNVpx9PCP6o++k+vfPeqR+V7G+&#xA;j9IX1zLJHL8JKgRk9AT4FckZ7Oyy9r5Bp4zFcciQfh+Ax+eTzlrqh2smnjk3WQWsYU17iQp/xtkd&#xA;y6yZ1Wo34bB/oj76Ruj+Q2ijnvfMZ+pWMKE0DrzJr125fd1OIh3uRpuyCAZ5/RADv3S12n1u6i0b&#xA;Q4DDp6MWjiJ3J6NPO3jT7ugwc9g4hMtRIYsIqHd/vpfjyD03y55cstDshDCOc70NxcEfE7fwUdhl&#xA;0Y09bodDDTwoc+p702wuahdT1Oz0yzkvLyT04Y/vY9lUdycBNNOfPDFAykaAeT+jdebPMrvbW6wJ&#xA;MwaXgNkjGxdz3Y/icp+ovGcEtZqCYir+wd5TT8wvL6af9UewtvS05VKuUqQJSerk1O4pSuSmKcvt&#xA;nRjFwmEah+nzY3p11osJBvbCS7Pek/pr9wSv/DZAEOqwZMUfriZf51foZ55c1nys+kaq1tpptoII&#xA;Q15CTzMqkMAvInfuN/HLYkU9HotVpjiycMOEAeoc75sR1LVPKU9fqujSQk/ti4K/8KVkXKyR3Olz&#xA;6jTS+nGR/nf2oHRLa8udZtk09HEwlVkI3KANXkxAGwwDm4+lxznliIc7+TO/zVeml2SU6zk1+SH+&#xA;uWZHovaE/u4j+l+hPvJv/KMad/xi/iclHk7Hsz/F4e5hXn3/AJTK0/1IP+ThyE+boO2P8aj7o/e9&#xA;Oy165iX5nf8AKOJ/zEp/xF8hPk6Tt7+4H9YfpRH5d/8AKK23+vL/AMTOGHJt7F/xYe8/eyXJO2eY&#xA;/lX/AMdm7/5hj/xNcqxvI+z/APey/q/pDKfzE/5RW5/14v8AiYyc+TuO2v8AFj7x96H/ACy/5Rxv&#xA;+YiT/iK4MfJr7B/uP84/oZbk3dOxV2KuxV2KuxVIfPVv63la+FKlFWQf7B1J/CuRnydb2tDi00vx&#xA;1eSSXjPp1vaHpBLLIP8AnqsY/wCZeU3s8VLLcBHuJPzr9T2m1kttL0K3Ny4hgtbeNZHboOKAffl/&#xA;IPfYzHDhHEaEYj7nnGsaxq3nDVksLBGW0VqxRHYADYyykf5joN+tRJkXldTqcutyiEB6eg/SXoPl&#xA;zy5ZaHZCGEc53obi4I+J2/go7DLYxp6bQ6GGnhQ59T3pthc1C6nqdnplnJeXknpwx/ex7Ko7k4Ca&#xA;ac+eGKBlI0A8uurrWvOmtLDCvCBP7uP/AHXDH3dz3J/sGVEmReQyZMuvy0OX2APStC0Kx0axW1tV&#xA;qTvNMftO3if4DtloFPV6TSQwQ4Y/E96YkAih6YXKQV3omkXSMs9nA5YEc2jQsK9waV74KDj5NJim&#xA;N4x+QeOWF41nbarbMaPPAIgP8pZkqP8AgeWUgvC4cnBHJE9Y1/sh+1m/5b6Np82jSXd1axTSvOwj&#xA;eRFchVVRsWBpvXJwGz0PYelhLEZSiCeLqGbxwxRLxiRUXwUAD8Msd/GIHIUwr81UJ0yyfsJyKfND&#xA;/TK8jofaEfu4n+l+hPvJv/KMad/xi/iclHk7Hsz/ABeHuYV59/5TK0/1IP8Ak4chPm6Dtj/Go+6P&#xA;3vTsteuYl+Z3/KOJ/wAxKf8AEXyE+TpO3v7gf1h+lEfl3/yitt/ry/8AEzhhybexf8WHvP3slyTt&#xA;nmP5V/8AHZu/+YY/8TXKsbyPs/8A3sv6v6Qyn8xP+UVuf9eL/iYyc+TuO2v8WPvH3of8sv8AlHG/&#xA;5iJP+Irgx8mvsH+4/wA4/oZbk3dOxV2KuxV2KuxVTuIIbiCSCZQ8UqlJEPdWFCMWM4CUTE8iwxvy&#xA;88v6dK2oXl25sID6hikoBQHYMw3b5Ab5XwAOhPYuDEeOcjwDox/WNY1bzhqyWFgjLaK1YojsABsZ&#xA;ZSP8x0G/WJJkXWanU5dblEID09B+kvQfLnlyy0OyEMI5zvQ3FwR8Tt/BR2GWxjT02h0MNPChz6nv&#xA;TbC5qF1PU7PTLOS8vJPThj+9j2VR3JwE00588MUDKRoB5ddXWtedNaWGFeECf3cf+64Y+7ue5P8A&#xA;YMqJMi8hkyZdflocvsAelaFoVjo1itrarUneaY/advE/wHbLQKer0mkhghwx+J70xwuU7FXYq811&#xA;38udWk1WaawMb21xI0g5NwKciSQRToO1MqMDbymr7EynITCjEn5M58vaQNI0i3sOfqNGCZHHQuxL&#xA;GntvtlkRQeh0Wm8HEIc6THC5TCvzU/449p/zEf8AGjZXk5Og9oP7qP8AW/QU88mkHyvp1N/3X/Gx&#xA;yUeTsOy/8Xh7kBr/AJMfVdftNSFwEhiCCeIgliI2LfCR41pgMbLjazss5s0cl7Cr+DKMm7hJ/NWh&#xA;PrektZxyiKUOskbMKrVaihp7HBIWHB7R0Z1GLgBo3at5d0j9EaPBYF/UaLkXkAoCzMWNPvpiBQZ6&#xA;LTeBiELukywuWxfyl5MfQr26uHuBMJV9OEAEEJy5VavfYdMhGNOn7O7LOnnKRN3sF/5if8orc/68&#xA;X/ExhnyZdtf4sfePvQ/5Zf8AKON/zESf8RXBj5NfYP8Acf5x/Qy3Ju6dirsVdirsVdiqld3dtZ20&#xA;lzcyCKCIcndugGJLDJkjCJlI0A8t1jWNW84aslhYIy2itWKI7AAbGWUj/MdBv1pJMi8fqdTl1uUQ&#xA;gPT0H6S9B8ueXLLQ7IQwjnO9DcXBHxO38FHYZbGNPTaHQw08KHPqe9NsLmoXU9Ts9Ms5Ly8k9OGP&#xA;72PZVHcnATTTnzwxQMpGgHl11da1501pYYV4QJ/dx/7rhj7u57k/2DKiTIvIZMmXX5aHL7AHpWha&#xA;FY6NYra2q1J3mmP2nbxP8B2y0Cnq9JpIYIcMfie9McLlOxV2KuxV2KuxV2Ksd8+6VJqHl6X0l5TW&#xA;rC4RR1IUEMP+BJORmLDq+2NOcuA1zjv+Pgk/5beYrd7P9DXDhJ4izWtT9tGPIqPdTU/L5ZGEujg9&#xA;h62Jj4UuY5ebOsseidirsVdirsVdirzv8yvMME/p6PasJCjh7llNQGFQse3fepyqZ6PL9ua0SrFH&#xA;ejv+plnlLS30zQLW2lHGYqZJgeoZzyoflWmTiKDuuzdOcWCMTz5n4pxknOdirsVdirsVdiry7zRq&#xA;Wp+Y/MX6Gsz/AKPDK0UUdaKWSoeRz7UNPbKZGzTyGvz5NVn8KHIGvlzJZ35c8uWWh2QhhHOd6G4u&#xA;CPidv4KOwy2Maei0Ohhp4UOfU96bYXNQup6nZ6ZZyXl5J6cMf3seyqO5OAmmnPnhigZSNAPLrq61&#xA;rzprSwwrwgT+7j/3XDH3dz3J/sGVEmReQyZMuvy0OX2APStC0Kx0axW1tVqTvNMftO3if4DtloFP&#xA;V6TSQwQ4Y/E96Y4XKdirsVdirsVdirsVdirsVYD5m/LuV7hr7RCFZjza0JCUataxtsB8j0/DK5Q7&#xA;nm9f2ITLjw/L9SUprP5jWA+rsly3HoZIPVP/AAZVq/fkbkHCGp1+P0+r/S39tLv8U/mF/vqb/pFH&#xA;/NGHikn+UNd3H/S/sd/in8wv99Tf9Io/5ox4pL/KGu7j/pf2O/xT+YX++pv+kUf80Y8Ul/lDXdx/&#xA;0v7Hf4p/ML/fU3/SKP8AmjHikv8AKGu7j/pf2LZNR/MbVF+rhLkI2zcIhAPpfin68FyKDm1+b0+r&#xA;5V9uyfeU/wAvhYzJf6qVkuUPKG3XdUb+Zj+0w+755KMO92PZ3Y3hkTyby6DuZtlj0DsVdirsVdir&#xA;sVdirye7mufK/naW7kjMkTSPIo6c4Zieh8RX7xlPIvGZJS0mrMiLFk+8F6hp+oWmoWkd3aSCSCQV&#xA;Vh1B7gjsRloNvXYc0csRKJsFbqep2emWcl5eSenDH97HsqjuTiTSM+eGKBlI0A8uurrWvOmtLDCv&#xA;CBP7uP8A3XDH3dz3J/sGVEmReQyZMuvy0OX2APStC0Kx0axW1tVqTvNMftO3if4DtloFPV6TSQwQ&#xA;4Y/E96Y4XKdirsVdirsVdirsVdirsVdirsVdirsVdirsVdirsVdirsVdirsVdirsVdirsVSzzB5f&#xA;stbsjb3A4yLUwTgfEjeI9vEYCLcTWaOGohwy59D3PNobjzP5MvZIzH+4c7hwWgkp0ZSKb0+nxyre&#xA;LysZ6jQzIrb/AGJbdvM3nO/jqlIE2BUFYIh3NTWrfjjvJSdRrpju/wBiHpWhaFY6NYra2q1J3mmP&#xA;2nbxP8B2y0Cnq9JpIYIcMfie9McLlOxV2KuxV2KuxV2KuxV2KuxV/9k=</xmpGImg:image>
               </rdf:li>
            </rdf:Alt>
         </xmp:Thumbnails>
         <xmpTPg:MaxPageSize rdf:parseType="Resource">
            <stDim:w>60.000000</stDim:w>
            <stDim:h>60.000000</stDim:h>
            <stDim:unit>Pixels</stDim:unit>
         </xmpTPg:MaxPageSize>
         <xmpTPg:NPages>1</xmpTPg:NPages>
         <xmpTPg:HasVisibleTransparency>False</xmpTPg:HasVisibleTransparency>
         <xmpTPg:HasVisibleOverprint>False</xmpTPg:HasVisibleOverprint>
         <xmpTPg:PlateNames>
            <rdf:Seq>
               <rdf:li>Cyan</rdf:li>
               <rdf:li>Magenta</rdf:li>
               <rdf:li>Yellow</rdf:li>
               <rdf:li>Black</rdf:li>
            </rdf:Seq>
         </xmpTPg:PlateNames>
         <xmpTPg:SwatchGroups>
            <rdf:Seq>
               <rdf:li rdf:parseType="Resource">
                  <xmpG:groupName>Default Swatch Group</xmpG:groupName>
                  <xmpG:groupType>0</xmpG:groupType>
               </rdf:li>
            </rdf:Seq>
         </xmpTPg:SwatchGroups>
         <dc:format>image/svg+xml</dc:format>
      </rdf:Description>
   </rdf:RDF>
</x:xmpmeta>
                                                                                                    
                                                                                                    
                                                                                                    
                                                                                                    
                                                                                                    
                                                                                                    
                                                                                                    
                                                                                                    
                                                                                                    
                                                                                                    
                                                                                                    
                                                                                                    
                                                                                                    
                                                                                                    
                                                                                                    
                                                                                                    
                                                                                                    
                                                                                                    
                                                                                                    
                                                                                                    
                           
<?xpacket end="w"?>
	</metadata>
<g>
	<g id="effects_1_">
		<path fill="#FFFFFF" d="M36.354,25.906c-0.408,0-0.791-0.158-1.08-0.446l-1.208-1.208c-0.595-0.596-0.595-1.564,0-2.16
			l10.277-10.276c0.094-0.094,0.221-0.146,0.354-0.146l0,0c0.133,0,0.26,0.053,0.354,0.146l2.66,2.661
			c0.195,0.195,0.195,0.512,0,0.707L37.435,25.46C37.146,25.748,36.763,25.906,36.354,25.906z M52.997,18.511
			c-0.25,0-0.461-0.185-0.495-0.432l-0.298-2.172l-2.173-0.299c-0.243-0.034-0.427-0.239-0.432-0.485s0.169-0.459,0.41-0.503
			l2.194-0.398l0.298-2.078c0.035-0.246,0.246-0.429,0.495-0.429l0,0c0.248,0,0.459,0.182,0.495,0.428l0.302,2.078l2.19,0.399
			c0.241,0.044,0.415,0.257,0.41,0.502c-0.006,0.246-0.188,0.451-0.432,0.485l-2.172,0.299l-0.299,2.172
			C53.458,18.326,53.247,18.511,52.997,18.511L52.997,18.511z M35.397,18.089c-0.25,0-0.461-0.185-0.495-0.432l-0.299-2.171
			l-2.172-0.299c-0.243-0.033-0.426-0.239-0.432-0.484c-0.005-0.246,0.169-0.458,0.41-0.502l2.193-0.399l0.299-2.079
			c0.036-0.246,0.246-0.429,0.495-0.429s0.46,0.183,0.495,0.429l0.299,2.079l2.193,0.399c0.241,0.044,0.415,0.257,0.41,0.502
			c-0.006,0.246-0.188,0.451-0.432,0.484l-2.172,0.299l-0.299,2.171C35.858,17.904,35.647,18.089,35.397,18.089z M39.584,14.461
			c-0.25,0-0.461-0.185-0.495-0.432l-0.643-4.663l-4.663-0.642c-0.243-0.033-0.426-0.239-0.432-0.484
			c-0.005-0.246,0.169-0.458,0.41-0.502l4.685-0.852l0.642-4.458C39.124,2.183,39.334,2,39.583,2c0.248,0,0.459,0.183,0.495,0.428
			l0.645,4.459l4.301,0.782l-0.177-1.282l-2.172-0.3c-0.243-0.034-0.427-0.239-0.432-0.484s0.169-0.459,0.41-0.502l2.193-0.399
			l0.299-2.078c0.035-0.246,0.246-0.428,0.494-0.429c0.001,0,0.001,0,0.001,0c0.248,0,0.459,0.182,0.495,0.428l0.304,2.079
			L48.633,5.1c0.241,0.044,0.415,0.257,0.41,0.502s-0.188,0.451-0.432,0.484l-2.171,0.3l-0.304,2.173
			c-0.034,0.247-0.246,0.431-0.495,0.431l0,0c-0.18,0-0.34-0.096-0.428-0.241l-4.491,0.618l-0.644,4.662
			C40.045,14.277,39.834,14.461,39.584,14.461L39.584,14.461z M48.413,14.275c-0.128,0-0.256-0.049-0.354-0.146l-2.661-2.66
			c-0.094-0.094-0.146-0.221-0.146-0.354c0-0.132,0.053-0.26,0.146-0.354l4.359-4.359c0.288-0.289,0.672-0.447,1.08-0.447
			c0.407,0,0.791,0.159,1.08,0.447l1.208,1.205c0.597,0.599,0.596,1.569,0,2.164l-4.359,4.357
			C48.669,14.226,48.541,14.275,48.413,14.275z"/>
		<path fill="#5D5D5D" d="M39.583,2.5l0.696,4.815l5.037,0.916l-5.037,0.693l-0.695,5.037L38.89,8.923L33.852,8.23l5.038-0.916
			L39.583,2.5 M45.641,2.695l0.356,2.434l2.546,0.463l-2.546,0.352l-0.355,2.547L45.29,5.944l-2.547-0.352l2.547-0.463L45.641,2.695
			 M50.837,6.455c0.263,0,0.526,0.1,0.727,0.301l1.209,1.205c0,0,0.001,0.001,0.001,0.001c0.401,0.402,0.401,1.054-0.002,1.455
			l-4.359,4.358l-2.661-2.66l4.359-4.359c0,0,0,0,0.001-0.001C50.312,6.555,50.575,6.455,50.837,6.455 M47.534,11.215
			c0.081,0,0.162-0.031,0.224-0.092l2.642-2.642h-0.002c0.112-0.121,0.112-0.307,0.001-0.428c-0.062-0.068-0.148-0.103-0.233-0.103
			c-0.076,0-0.152,0.027-0.213,0.083l-2.642,2.642c-0.124,0.123-0.124,0.324-0.001,0.448C47.371,11.184,47.452,11.215,47.534,11.215
			 M35.397,11.793l0.351,2.435l2.547,0.464l-2.547,0.35l-0.351,2.547l-0.35-2.547l-2.547-0.35l2.547-0.464L35.397,11.793
			 M44.697,12.169l2.66,2.661L37.081,25.106c-0.201,0.2-0.464,0.301-0.727,0.301c-0.263,0-0.526-0.1-0.726-0.301l-1.208-1.208
			c-0.401-0.401-0.401-1.052,0-1.453L44.697,12.169 M52.997,12.216l0.354,2.434l2.544,0.463l-2.547,0.351l-0.351,2.547l-0.35-2.547
			L50.1,15.113l2.547-0.463L52.997,12.216 M39.583,1.5C39.583,1.5,39.583,1.5,39.583,1.5c-0.497,0-0.919,0.365-0.99,0.858
			l-0.59,4.101l-4.33,0.787c-0.484,0.088-0.831,0.514-0.821,1.005c0.011,0.491,0.377,0.902,0.863,0.969l4.287,0.59l0.539,3.913
			c-0.022-0.006-0.045-0.011-0.068-0.015l-1.839-0.335l-0.248-1.723c-0.071-0.492-0.493-0.857-0.99-0.857c0,0,0,0,0,0
			c-0.497,0-0.919,0.366-0.99,0.858l-0.248,1.722l-1.839,0.335c-0.483,0.088-0.831,0.514-0.821,1.006
			c0.011,0.491,0.377,0.902,0.864,0.969l1.796,0.247l0.247,1.796c0.068,0.495,0.491,0.864,0.991,0.864
			c0.5,0,0.923-0.369,0.991-0.863l0.248-1.796l1.796-0.247c0.42-0.058,0.75-0.371,0.84-0.772c0.099,0.033,0.204,0.05,0.313,0.05
			c0.5,0,0.922-0.368,0.991-0.863l0.591-4.286l3.862-0.531c0.17,0.133,0.384,0.211,0.614,0.211c0,0,0,0,0.001,0
			c0.144,0,0.281-0.031,0.406-0.086l-1.003,1.003c-0.188,0.188-0.293,0.442-0.293,0.707c0,0.019,0.001,0.037,0.002,0.055
			c-0.019-0.001-0.038-0.002-0.056-0.002c-0.265,0-0.52,0.105-0.707,0.293L33.713,21.738c-0.79,0.791-0.79,2.077,0,2.867
			l1.208,1.208c0.383,0.383,0.892,0.594,1.434,0.594c0.541,0,1.05-0.211,1.433-0.593l10.276-10.276
			c0.21-0.21,0.307-0.489,0.291-0.764c0.019,0.001,0.038,0.002,0.058,0.002c0.256,0,0.512-0.098,0.707-0.293l4.359-4.358
			c0.383-0.382,0.595-0.891,0.595-1.433c0.001-0.542-0.21-1.052-0.593-1.435L52.27,6.048c-0.381-0.382-0.891-0.593-1.432-0.593
			c-0.517,0-1.004,0.192-1.38,0.542c0.052-0.118,0.083-0.248,0.085-0.384c0.01-0.491-0.337-0.917-0.821-1.005l-1.839-0.334
			L46.63,2.55c-0.072-0.491-0.493-0.855-0.989-0.855c0,0-0.001,0-0.001,0c-0.497,0-0.918,0.366-0.989,0.857l-0.248,1.722
			l-1.839,0.334c-0.483,0.088-0.831,0.514-0.821,1.005c0.01,0.491,0.376,0.902,0.863,0.969l1.797,0.248l0.031,0.223L41.166,6.46
			l-0.593-4.103C40.502,1.865,40.08,1.5,39.583,1.5L39.583,1.5z M46.883,6.831l1.797-0.248c0.093-0.013,0.182-0.038,0.265-0.075
			l-2.389,2.389c0.037-0.083,0.063-0.173,0.076-0.267L46.883,6.831L46.883,6.831z M52.997,11.216
			C52.997,11.216,52.996,11.216,52.997,11.216c-0.498,0-0.919,0.366-0.99,0.858l-0.247,1.721l-1.839,0.334
			c-0.483,0.088-0.831,0.514-0.821,1.005c0.011,0.491,0.376,0.902,0.863,0.969l1.796,0.248l0.247,1.796
			c0.068,0.495,0.491,0.864,0.99,0.864c0.5,0,0.923-0.369,0.991-0.863l0.248-1.796l1.796-0.248c0.487-0.067,0.853-0.478,0.863-0.969
			c0.011-0.491-0.337-0.917-0.821-1.005l-1.837-0.334l-0.251-1.723C53.915,11.581,53.494,11.216,52.997,11.216L52.997,11.216z"/>
	</g>
</g>
<g>
	<g>
		<path fill="#FFFFFF" d="M9.949,24c-0.036,0-0.072-0.004-0.107-0.012l-0.107-0.023c-0.113-0.023-0.227-0.048-0.34-0.078
			c-1.403-0.358-2.379-1.623-2.372-3.075c-0.005-1.638-0.004-3.279-0.003-4.921l0-5.067c0-0.079,0.016-0.348,0.016-0.348
			C7.049,10.209,7.269,10,7.535,10h12.944c0.264,0,0.483,0.206,0.499,0.469c0.014,0.176,0.02,0.248,0.019,0.321
			c0.006,3.347,0.006,6.697,0,10.044c-0.004,1.573-1.183,2.916-2.741,3.124C18.198,23.981,18.132,24,18.069,24H9.949z
			 M14.007,18.858c-0.001,0.348-0.002,0.694,0.003,1.042c0,0.002,0,0.004,0,0.006c0.001-0.018,0.003-6.328,0-6.771
			c0-0.004,0-0.009,0-0.013C14.007,13.151,14.007,18.858,14.007,18.858z"/>
		<path fill="#5D5D5D" d="M20.479,10.5c0.007,0.11,0.019,0.196,0.018,0.285c0.006,3.353,0.006,6.702,0,10.049
			c-0.004,1.33-0.989,2.453-2.307,2.629c-0.041,0.01-0.082,0.022-0.121,0.037h-8.12c-0.143-0.031-0.286-0.059-0.428-0.097
			c-1.181-0.302-2.005-1.369-1.999-2.589c-0.007-2.283-0.002-4.567-0.002-6.85c0-1.046,0-2.096,0-3.142
			c0-0.102,0.01-0.213,0.015-0.323H20.479 M18.007,20.518c0.224,0,0.421-0.197,0.477-0.496c0.01-0.071,0.014-0.141,0.012-0.213
			c0-1.103,0-2.199,0-3.309c0-0.966,0-1.957,0.002-2.936c0-0.166,0.006-0.335-0.003-0.501c-0.017-0.315-0.227-0.569-0.469-0.578
			c-0.005,0-0.01,0-0.015,0c-0.247,0-0.457,0.237-0.487,0.556c-0.005,0.072-0.006,0.143-0.005,0.215c0,1.287,0,2.576,0,3.865
			c0,0.919-0.002,1.836,0,2.755c0.001,0.333,0.187,0.604,0.434,0.638C17.971,20.516,17.989,20.518,18.007,20.518 M14.007,20.517
			c0.234,0,0.442-0.208,0.494-0.508c0.008-0.065,0.012-0.129,0.01-0.195c0-1.092,0-2.185,0-3.28c0.001-0.541,0.001-1.081,0.001-1.62
			c0-0.596,0.002-1.19-0.003-1.784c-0.003-0.326-0.21-0.597-0.463-0.618c-0.011-0.001-0.022-0.001-0.032-0.001
			c-0.239,0-0.447,0.211-0.497,0.516c-0.009,0.077-0.013,0.154-0.009,0.231c0,1.723,0,3.446,0,5.169
			c0,0.494-0.005,0.987,0.002,1.479c0.004,0.319,0.21,0.58,0.455,0.607C13.979,20.516,13.993,20.517,14.007,20.517 M10.011,20.517
			c0.222,0,0.416-0.194,0.475-0.488c0.013-0.082,0.018-0.165,0.016-0.247c0-1.415,0-2.828,0-4.242c0-0.791,0.001-1.58-0.003-2.371
			c-0.002-0.357-0.196-0.631-0.45-0.654c-0.012-0.001-0.024-0.002-0.035-0.002c-0.274,0-0.491,0.278-0.491,0.654
			c0,1.116,0,2.233,0,3.351c0,0.844,0,1.687,0,2.531c0,0.285-0.003,0.571,0.003,0.856c0.006,0.318,0.2,0.581,0.44,0.61
			C9.981,20.517,9.996,20.517,10.011,20.517 M20.479,9.5H7.535c-0.534,0-0.974,0.42-0.999,0.954L6.531,10.55
			c-0.006,0.094-0.011,0.186-0.011,0.273v3.142l-0.001,2.004c-0.001,1.616-0.002,3.233,0.003,4.849
			c-0.008,1.673,1.123,3.138,2.751,3.555c0.11,0.029,0.229,0.055,0.348,0.08l0.113,0.024C9.805,24.492,9.877,24.5,9.949,24.5h8.12
			c0.115,0,0.228-0.02,0.336-0.058c1.763-0.276,3.087-1.811,3.092-3.605c0.006-3.349,0.006-6.7,0-10.053
			c0.001-0.077-0.005-0.164-0.013-0.26l-0.007-0.086C21.444,9.911,21.007,9.5,20.479,9.5L20.479,9.5z"/>
	</g>
	<g>
		<path fill="#FFFFFF" d="M7.615,9.993c-1.248,0-1.569-0.718-1.603-1.37c-0.022-0.14-0.001-0.301,0.06-0.409
			C6.288,7.473,6.857,7,7.509,7h2.5V5.5c0-0.858,0.849-1.5,1.607-1.5h4.785c0.757,0,1.606,0.641,1.607,1.499V7h2.5
			c0.409,0,0.771,0.149,1.049,0.429c0.248,0.251,0.412,0.602,0.445,0.942c0.008,0.036,0.012,0.073,0.012,0.111
			c0,0.066-0.013,0.133-0.036,0.196c-0.172,0.793-0.775,1.315-1.49,1.315H7.615z"/>
		<path fill="#5D5D5D" d="M16.402,4.5c0.508,0,1.107,0.449,1.107,1v2c0,0,1.958,0,3,0c0.696,0.001,1.003,0.619,1,1
			c-0.076,0.557-0.496,0.993-1.02,0.993c-1.782,0-3.565,0-5.347,0H7.615c-0.698,0-1.105-0.235-1.105-0.993c0.087-0.542,0.479-1,1-1
			c1.766,0,2.619,0,3,0h0.273c0,0-0.068,0-0.273,0v-2c0-0.551,0.599-1,1.107-1H16.402 M6.507,8.461c0.001,0,0.002,0.011,0.002,0.039
			C6.505,8.528,6.502,8.538,6.501,8.538C6.498,8.538,6.504,8.461,6.507,8.461 M21.515,8.465c0.003,0,0.001,0.071-0.002,0.071
			c-0.001,0-0.002-0.01-0.003-0.036C21.512,8.474,21.514,8.465,21.515,8.465 M16.402,3.5h-4.785c-0.997,0-2.107,0.821-2.107,2v1h-2
			c-0.914,0-1.702,0.672-1.943,1.627C5.524,8.246,5.5,8.38,5.5,8.529c0,0.063,0.006,0.126,0.018,0.187
			c0.087,1.117,0.857,1.776,2.097,1.776h7.527h5.347c0.953,0,1.755-0.684,1.974-1.653c0.034-0.107,0.052-0.226,0.052-0.356
			c0-0.063-0.006-0.125-0.017-0.185c-0.048-0.447-0.259-0.892-0.585-1.221c-0.368-0.371-0.866-0.576-1.403-0.577h-2.002v-1
			C18.508,4.321,17.397,3.5,16.402,3.5L16.402,3.5z"/>
	</g>
</g>
<g>
	<g id="effects_2_">
		<path fill="#FFFFFF" d="M36.354,55.906c-0.408,0-0.791-0.158-1.08-0.446l-1.208-1.208c-0.595-0.596-0.595-1.564,0-2.16
			l10.277-10.276c0.094-0.094,0.221-0.146,0.354-0.146l0,0c0.133,0,0.26,0.053,0.354,0.146l2.66,2.661
			c0.195,0.195,0.195,0.512,0,0.707L37.435,55.46C37.146,55.748,36.763,55.906,36.354,55.906z M52.997,48.511
			c-0.25,0-0.461-0.185-0.495-0.432l-0.298-2.172l-2.173-0.299c-0.243-0.033-0.426-0.238-0.432-0.484
			c-0.005-0.246,0.169-0.459,0.41-0.503l2.194-0.398l0.298-2.078c0.035-0.246,0.246-0.429,0.495-0.429l0,0
			c0.248,0,0.459,0.183,0.495,0.428l0.302,2.079l2.19,0.398c0.241,0.044,0.415,0.258,0.41,0.503
			c-0.006,0.246-0.188,0.451-0.432,0.484l-2.172,0.299l-0.299,2.172C53.458,48.326,53.247,48.511,52.997,48.511L52.997,48.511z
			 M35.397,48.089c-0.25,0-0.461-0.185-0.495-0.432l-0.299-2.172l-2.172-0.298c-0.243-0.033-0.426-0.238-0.432-0.484
			c-0.005-0.245,0.169-0.459,0.41-0.503l2.193-0.4l0.299-2.078c0.036-0.246,0.246-0.429,0.495-0.429s0.459,0.183,0.495,0.429
			l0.299,2.078l2.193,0.4c0.241,0.044,0.415,0.258,0.41,0.503c-0.006,0.246-0.188,0.451-0.432,0.484l-2.172,0.298l-0.299,2.172
			C35.858,47.904,35.647,48.089,35.397,48.089z M39.584,44.461c-0.25,0-0.461-0.185-0.495-0.432l-0.643-4.663l-4.663-0.641
			c-0.243-0.033-0.426-0.238-0.432-0.484c-0.005-0.245,0.169-0.459,0.41-0.503l4.685-0.852l0.642-4.458
			C39.124,32.183,39.334,32,39.583,32c0.248,0,0.459,0.183,0.495,0.429l0.645,4.459l4.301,0.782l-0.177-1.282l-2.172-0.301
			c-0.243-0.033-0.427-0.239-0.432-0.484c-0.005-0.246,0.169-0.459,0.41-0.503l2.193-0.398l0.299-2.077
			c0.036-0.246,0.246-0.429,0.494-0.429c0.001,0,0.001,0,0.001,0c0.248,0,0.459,0.182,0.495,0.428l0.304,2.078l2.193,0.398
			c0.241,0.044,0.415,0.257,0.41,0.503c-0.005,0.245-0.188,0.451-0.432,0.484l-2.171,0.301l-0.304,2.173
			c-0.034,0.247-0.246,0.431-0.495,0.431l0,0c-0.18,0-0.34-0.096-0.428-0.241l-4.491,0.617l-0.644,4.662
			C40.045,44.276,39.834,44.461,39.584,44.461L39.584,44.461z M48.413,44.275c-0.128,0-0.256-0.049-0.354-0.146l-2.661-2.66
			c-0.094-0.094-0.146-0.221-0.146-0.354s0.053-0.26,0.146-0.354l4.359-4.359c0.288-0.289,0.672-0.447,1.08-0.447
			s0.792,0.158,1.08,0.447l1.208,1.204c0.597,0.6,0.596,1.569,0,2.164l-4.359,4.358C48.669,44.227,48.541,44.275,48.413,44.275z"/>
		<path fill="#22D28B" d="M39.583,32.5l0.696,4.815l5.037,0.916l-5.037,0.693l-0.695,5.037l-0.694-5.038l-5.038-0.693l5.038-0.916
			L39.583,32.5 M45.641,32.695l0.356,2.434l2.546,0.463l-2.546,0.352l-0.355,2.547l-0.352-2.547l-2.547-0.352l2.547-0.463
			L45.641,32.695 M50.837,36.455c0.263,0,0.526,0.1,0.727,0.301l1.209,1.205c0,0,0.001,0.001,0.001,0.001
			c0.401,0.402,0.401,1.054-0.002,1.455l-4.359,4.358l-2.661-2.66l4.359-4.359c0,0,0,0,0.001-0.001
			C50.312,36.555,50.575,36.455,50.837,36.455 M47.534,41.215c0.081,0,0.162-0.031,0.223-0.092l2.642-2.642h-0.002
			c0.112-0.121,0.112-0.307,0.001-0.428c-0.062-0.068-0.148-0.103-0.233-0.103c-0.076,0-0.152,0.027-0.213,0.083l-2.642,2.642
			c-0.124,0.123-0.124,0.324-0.001,0.447C47.371,41.184,47.452,41.215,47.534,41.215 M35.397,41.793l0.351,2.435l2.547,0.464
			l-2.547,0.35l-0.351,2.547l-0.35-2.547l-2.547-0.35l2.547-0.464L35.397,41.793 M44.697,42.169l2.66,2.661L37.081,55.106
			c-0.201,0.2-0.464,0.301-0.727,0.301c-0.263,0-0.526-0.1-0.726-0.301l-1.208-1.208c-0.401-0.401-0.401-1.052,0-1.453
			L44.697,42.169 M52.997,42.216l0.354,2.434l2.544,0.463l-2.547,0.351l-0.351,2.547l-0.35-2.547L50.1,45.113l2.547-0.463
			L52.997,42.216 M39.583,31.5C39.583,31.5,39.583,31.5,39.583,31.5c-0.497,0-0.919,0.365-0.99,0.858l-0.59,4.101l-4.33,0.787
			c-0.484,0.088-0.831,0.514-0.821,1.005c0.011,0.491,0.377,0.902,0.863,0.969l4.287,0.59l0.539,3.913
			c-0.022-0.006-0.045-0.011-0.068-0.015l-1.839-0.335l-0.248-1.723c-0.071-0.492-0.493-0.857-0.99-0.857c0,0,0,0,0,0
			c-0.497,0-0.919,0.366-0.99,0.858l-0.248,1.722l-1.839,0.335c-0.483,0.088-0.831,0.514-0.821,1.006
			c0.011,0.491,0.377,0.902,0.864,0.969l1.796,0.247l0.247,1.796c0.068,0.495,0.491,0.864,0.991,0.864s0.923-0.369,0.991-0.863
			l0.248-1.796l1.796-0.247c0.42-0.058,0.75-0.371,0.84-0.772c0.099,0.033,0.204,0.05,0.313,0.05c0.5,0,0.922-0.368,0.991-0.863
			l0.591-4.286l3.862-0.531c0.17,0.133,0.384,0.211,0.614,0.211c0,0,0,0,0.001,0c0.144,0,0.281-0.031,0.406-0.086l-1.003,1.003
			c-0.188,0.188-0.293,0.442-0.293,0.707c0,0.019,0.001,0.037,0.002,0.056c-0.019-0.001-0.038-0.002-0.056-0.002
			c-0.265,0-0.52,0.105-0.707,0.293L33.713,51.738c-0.79,0.791-0.79,2.077,0,2.867l1.208,1.208c0.383,0.383,0.892,0.594,1.434,0.594
			c0.541,0,1.05-0.211,1.433-0.593l10.276-10.276c0.21-0.21,0.307-0.489,0.291-0.764c0.019,0.001,0.038,0.002,0.058,0.002
			c0.256,0,0.512-0.098,0.707-0.293l4.359-4.358c0.383-0.382,0.595-0.891,0.595-1.433c0.001-0.542-0.21-1.052-0.593-1.435
			l-1.212-1.208c-0.381-0.382-0.891-0.593-1.432-0.593c-0.517,0-1.004,0.192-1.38,0.542c0.052-0.118,0.083-0.248,0.085-0.384
			c0.01-0.491-0.337-0.917-0.821-1.005l-1.839-0.335L46.63,32.55c-0.072-0.491-0.493-0.855-0.989-0.855c0,0-0.001,0-0.001,0
			c-0.497,0-0.918,0.366-0.989,0.857l-0.248,1.722l-1.839,0.334c-0.483,0.088-0.831,0.514-0.821,1.005
			c0.01,0.491,0.376,0.902,0.863,0.969l1.797,0.248l0.031,0.223l-3.268-0.594l-0.593-4.103C40.502,31.865,40.08,31.5,39.583,31.5
			L39.583,31.5z M46.883,36.831l1.797-0.248c0.093-0.013,0.182-0.038,0.265-0.075l-2.389,2.389c0.037-0.083,0.063-0.173,0.076-0.267
			L46.883,36.831L46.883,36.831z M52.997,41.216C52.997,41.216,52.996,41.216,52.997,41.216c-0.498,0-0.919,0.366-0.99,0.858
			l-0.247,1.721l-1.839,0.334c-0.483,0.088-0.831,0.514-0.821,1.005c0.011,0.491,0.376,0.902,0.863,0.969l1.796,0.248l0.247,1.796
			c0.068,0.495,0.491,0.864,0.99,0.864s0.923-0.369,0.991-0.863l0.248-1.796l1.796-0.248c0.487-0.067,0.853-0.478,0.863-0.969
			c0.011-0.491-0.337-0.917-0.821-1.005l-1.837-0.334l-0.251-1.723C53.915,41.581,53.494,41.216,52.997,41.216L52.997,41.216z"/>
	</g>
</g>
<g>
	<g>
		<path fill="#FFFFFF" d="M9.949,54c-0.036,0-0.072-0.004-0.107-0.012l-0.107-0.023c-0.113-0.023-0.227-0.048-0.34-0.078
			c-1.403-0.358-2.379-1.623-2.372-3.075c-0.005-1.638-0.004-3.279-0.003-4.921l0-5.067c0-0.079,0.016-0.348,0.016-0.348
			C7.049,40.209,7.269,40,7.535,40h12.944c0.264,0,0.483,0.205,0.499,0.469c0.014,0.177,0.02,0.249,0.019,0.322
			c0.006,3.347,0.006,6.696,0,10.044c-0.004,1.573-1.183,2.916-2.741,3.124C18.198,53.981,18.132,54,18.069,54H9.949z
			 M14.007,48.858c-0.001,0.348-0.002,0.694,0.003,1.042c0,0.002,0,0.004,0,0.006c0.001-0.018,0.003-6.327,0-6.771
			c0-0.004,0-0.009,0-0.013C14.007,43.151,14.007,48.858,14.007,48.858z"/>
		<path fill="#22D28B" d="M20.479,40.5c0.007,0.11,0.019,0.196,0.018,0.285c0.006,3.353,0.006,6.702,0,10.049
			c-0.004,1.331-0.989,2.453-2.307,2.629c-0.041,0.01-0.082,0.022-0.121,0.037h-8.12c-0.143-0.032-0.286-0.059-0.428-0.097
			c-1.181-0.302-2.005-1.369-1.999-2.589c-0.007-2.283-0.002-4.567-0.002-6.85c0-1.046,0-2.096,0-3.142
			c0-0.102,0.01-0.213,0.015-0.323H20.479 M18.007,50.518c0.224,0,0.421-0.197,0.477-0.496c0.01-0.071,0.014-0.141,0.012-0.213
			c0-1.103,0-2.199,0-3.309c0-0.966,0-1.957,0.002-2.936c0-0.166,0.006-0.335-0.003-0.501c-0.017-0.315-0.227-0.569-0.469-0.578
			c-0.005,0-0.01,0-0.015,0c-0.247,0-0.457,0.237-0.487,0.556c-0.005,0.072-0.006,0.143-0.005,0.215c0,1.287,0,2.576,0,3.865
			c0,0.919-0.002,1.836,0,2.755c0.001,0.333,0.187,0.604,0.434,0.638C17.971,50.516,17.989,50.518,18.007,50.518 M14.007,50.517
			c0.234,0,0.442-0.208,0.494-0.508c0.008-0.065,0.012-0.129,0.01-0.195c0-1.092,0-2.186,0-3.28c0.001-0.541,0.001-1.081,0.001-1.62
			c0-0.596,0.002-1.19-0.003-1.784c-0.003-0.326-0.21-0.597-0.463-0.618c-0.011-0.001-0.022-0.001-0.032-0.001
			c-0.239,0-0.447,0.211-0.497,0.516c-0.009,0.077-0.013,0.154-0.009,0.231c0,1.723,0,3.446,0,5.169
			c0,0.494-0.005,0.987,0.002,1.479c0.004,0.319,0.21,0.58,0.455,0.607C13.979,50.516,13.993,50.517,14.007,50.517 M10.011,50.518
			c0.222,0,0.416-0.194,0.475-0.488c0.013-0.082,0.018-0.165,0.016-0.247c0-1.415,0-2.828,0-4.242c0-0.791,0.001-1.58-0.003-2.371
			c-0.002-0.356-0.196-0.631-0.45-0.654c-0.012-0.001-0.024-0.002-0.035-0.002c-0.274,0-0.491,0.278-0.491,0.654
			c0,1.116,0,2.233,0,3.351c0,0.844,0,1.687,0,2.531c0,0.285-0.003,0.571,0.003,0.856c0.006,0.318,0.2,0.581,0.44,0.61
			C9.981,50.517,9.996,50.518,10.011,50.518 M20.479,39.5H7.535c-0.534,0-0.974,0.42-0.999,0.954L6.531,40.55
			c-0.006,0.094-0.011,0.186-0.011,0.273v3.142l-0.001,2.004c-0.001,1.616-0.002,3.233,0.003,4.849
			c-0.008,1.673,1.123,3.138,2.751,3.555c0.11,0.029,0.229,0.055,0.348,0.08l0.113,0.024C9.805,54.492,9.877,54.5,9.949,54.5h8.12
			c0.115,0,0.228-0.02,0.336-0.058c1.763-0.276,3.087-1.811,3.092-3.605c0.006-3.349,0.006-6.7,0-10.053
			c0.001-0.077-0.005-0.164-0.013-0.26l-0.007-0.086C21.444,39.911,21.007,39.5,20.479,39.5L20.479,39.5z"/>
	</g>
	<g>
		<path fill="#FFFFFF" d="M7.615,39.993c-1.249,0-1.569-0.719-1.603-1.371c-0.022-0.141-0.001-0.302,0.06-0.409
			C6.288,37.473,6.857,37,7.509,37h2.5v-1.5c0-0.858,0.849-1.5,1.607-1.5h4.785c0.757,0,1.606,0.642,1.607,1.499V37h2.5
			c0.409,0.001,0.771,0.148,1.049,0.429c0.249,0.251,0.413,0.602,0.445,0.941c0.008,0.036,0.012,0.073,0.012,0.111
			c0,0.066-0.013,0.133-0.036,0.195c-0.172,0.794-0.775,1.316-1.49,1.316H7.615z"/>
		<path fill="#22D28B" d="M16.402,34.5c0.508,0,1.107,0.449,1.107,1v2c0,0,1.958,0,3,0c0.696,0.001,1.003,0.619,1,1
			c-0.076,0.557-0.496,0.993-1.02,0.993c-1.782,0-3.565,0-5.347,0H7.615c-0.698,0-1.105-0.235-1.105-0.993c0.087-0.542,0.479-1,1-1
			c1.766,0,2.619,0,3,0h0.273c0,0-0.068,0-0.273,0v-2c0-0.551,0.599-1,1.107-1H16.402 M6.507,38.461
			c0.001,0,0.002,0.011,0.002,0.039c-0.004,0.028-0.007,0.038-0.008,0.038C6.498,38.538,6.504,38.461,6.507,38.461 M21.515,38.465
			c0.003,0,0.001,0.071-0.002,0.071c-0.001,0-0.002-0.01-0.003-0.036C21.512,38.474,21.514,38.465,21.515,38.465 M16.402,33.5
			h-4.785c-0.997,0-2.107,0.821-2.107,2v1h-2c-0.914,0-1.702,0.672-1.943,1.627C5.524,38.246,5.5,38.38,5.5,38.529
			c0,0.063,0.006,0.126,0.018,0.187c0.087,1.117,0.857,1.776,2.097,1.776h7.527h5.347c0.953,0,1.755-0.684,1.974-1.653
			c0.034-0.107,0.052-0.226,0.052-0.356c0-0.063-0.006-0.125-0.017-0.185c-0.048-0.447-0.259-0.892-0.585-1.221
			c-0.368-0.371-0.866-0.576-1.403-0.577h-2.002v-1C18.508,34.321,17.397,33.5,16.402,33.5L16.402,33.5z"/>
	</g>
</g>
</svg>
